<mxfile host="65bd71144e" pages="1">
    <diagram id="DqdifTHHVnfIUrJruRQs" name="Page-1">
        <mxGraphModel dx="918" dy="540" grid="1" gridSize="10" guides="1" tooltips="1" connect="1" arrows="1" fold="1" page="1" pageScale="1" pageWidth="827" pageHeight="1169" background="#EEEEEE" math="0" shadow="0">
            <root>
                <mxCell id="0"/>
                <mxCell id="1" parent="0"/>
                <mxCell id="2" value="&lt;div&gt;图例：&lt;/div&gt;&lt;div&gt;- _私有成员&lt;/div&gt;&lt;div&gt;- 保护成员_&lt;/div&gt;&lt;div&gt;+ 公有成员&lt;/div&gt;&lt;div&gt;- &lt;i&gt;_私有静态成员&lt;/i&gt;&lt;/div&gt;&lt;div&gt;+ &lt;i&gt;公有静态成员&lt;/i&gt;&lt;/div&gt;" style="shape=note;whiteSpace=wrap;html=1;size=14;verticalAlign=top;align=left;spacingTop=-6;fillColor=#F5AB50;strokeColor=#909090;fontColor=#1A1A1A;" parent="1" vertex="1">
                    <mxGeometry x="580" y="140" width="110" height="100" as="geometry"/>
                </mxCell>
                <mxCell id="4" value="@xizher/ol" style="shape=umlFrame;whiteSpace=wrap;html=1;width=80;height=30;fillColor=#F5AB50;strokeColor=#909090;fontColor=#1A1A1A;" parent="1" vertex="1">
                    <mxGeometry x="10" y="124" width="690" height="776" as="geometry"/>
                </mxCell>
                <mxCell id="5" value="&lt;p style=&quot;margin: 0px ; margin-top: 4px ; text-align: center&quot;&gt;&lt;i&gt;&amp;lt;&amp;lt;Interface&amp;gt;&amp;gt;&lt;/i&gt;&lt;br&gt;&lt;b&gt;IViewer&lt;/b&gt;&lt;/p&gt;&lt;hr size=&quot;1&quot;&gt;&lt;p style=&quot;margin: 0px ; margin-left: 4px&quot;&gt;+ $owner: WebMap&lt;/p&gt;&lt;p style=&quot;margin: 0px ; margin-left: 4px&quot;&gt;&lt;br&gt;&lt;/p&gt;" style="verticalAlign=top;align=left;overflow=fill;fontSize=12;fontFamily=Helvetica;html=1;fillColor=#F5AB50;strokeColor=#909090;fontColor=#1A1A1A;" parent="1" vertex="1">
                    <mxGeometry x="60" y="180" width="140" height="60" as="geometry"/>
                </mxCell>
                <mxCell id="8" value="extends cesium/Viewer" style="shape=note;whiteSpace=wrap;html=1;size=14;verticalAlign=top;align=left;spacingTop=-6;fillColor=#F5AB50;strokeColor=#909090;fontColor=#1A1A1A;" parent="1" vertex="1">
                    <mxGeometry x="100" y="130" width="150" height="30" as="geometry"/>
                </mxCell>
                <mxCell id="9" value="" style="endArrow=none;html=1;edgeStyle=orthogonalEdgeStyle;entryX=0.5;entryY=1;entryDx=0;entryDy=0;entryPerimeter=0;exitX=0.541;exitY=0.032;exitDx=0;exitDy=0;exitPerimeter=0;labelBackgroundColor=#EEEEEE;strokeColor=#182E3E;fontColor=#1A1A1A;" parent="1" source="5" target="8" edge="1">
                    <mxGeometry relative="1" as="geometry">
                        <mxPoint x="30" y="280" as="sourcePoint"/>
                        <mxPoint x="190" y="280" as="targetPoint"/>
                    </mxGeometry>
                </mxCell>
                <mxCell id="10" value="" style="resizable=0;html=1;align=left;verticalAlign=bottom;fontSize=10;labelBackgroundColor=#EEEEEE;fillColor=#F5AB50;strokeColor=#909090;fontColor=#1A1A1A;" parent="9" connectable="0" vertex="1">
                    <mxGeometry x="-1" relative="1" as="geometry"/>
                </mxCell>
                <mxCell id="11" value="" style="resizable=0;html=1;align=right;verticalAlign=bottom;fontSize=10;labelBackgroundColor=#EEEEEE;fillColor=#F5AB50;strokeColor=#909090;fontColor=#1A1A1A;" parent="9" connectable="0" vertex="1">
                    <mxGeometry x="1" relative="1" as="geometry"/>
                </mxCell>
                <mxCell id="15" value="WebMap" style="swimlane;fontStyle=1;align=center;verticalAlign=top;childLayout=stackLayout;horizontal=1;startSize=26;horizontalStack=0;resizeParent=1;resizeParentMax=0;resizeLast=0;collapsible=1;marginBottom=0;fillColor=#F5AB50;strokeColor=#909090;fontColor=#1A1A1A;" parent="1" vertex="1">
                    <mxGeometry x="20" y="270" width="180" height="200" as="geometry"/>
                </mxCell>
                <mxCell id="16" value="- _viewer: IViewer&#10;- _options: IWebMapOptions&#10;- _targetDiv: string" style="text;strokeColor=none;fillColor=none;align=left;verticalAlign=top;spacingLeft=4;spacingRight=4;overflow=hidden;rotatable=0;points=[[0,0.5],[1,0.5]];portConstraint=eastwest;fontColor=#1A1A1A;" parent="15" vertex="1">
                    <mxGeometry y="26" width="180" height="64" as="geometry"/>
                </mxCell>
                <mxCell id="19" value="" style="line;strokeWidth=1;fillColor=none;align=left;verticalAlign=middle;spacingTop=-1;spacingLeft=3;spacingRight=3;rotatable=0;labelPosition=right;points=[];portConstraint=eastwest;labelBackgroundColor=#EEEEEE;strokeColor=#909090;fontColor=#1A1A1A;" parent="15" vertex="1">
                    <mxGeometry y="90" width="180" height="8" as="geometry"/>
                </mxCell>
                <mxCell id="18" value="+ get viewer () : IViewer&#10;+ get targetDiv () : string" style="text;strokeColor=none;fillColor=none;align=left;verticalAlign=top;spacingLeft=4;spacingRight=4;overflow=hidden;rotatable=0;points=[[0,0.5],[1,0.5]];portConstraint=eastwest;fontColor=#1A1A1A;" parent="15" vertex="1">
                    <mxGeometry y="98" width="180" height="52" as="geometry"/>
                </mxCell>
                <mxCell id="20" value="" style="line;strokeWidth=1;fillColor=none;align=left;verticalAlign=middle;spacingTop=-1;spacingLeft=3;spacingRight=3;rotatable=0;labelPosition=right;points=[];portConstraint=eastwest;labelBackgroundColor=#EEEEEE;strokeColor=#909090;fontColor=#1A1A1A;" parent="15" vertex="1">
                    <mxGeometry y="150" width="180" height="8" as="geometry"/>
                </mxCell>
                <mxCell id="21" value="+ use () : this&#10;+ mount () : this" style="text;strokeColor=none;fillColor=none;align=left;verticalAlign=top;spacingLeft=4;spacingRight=4;overflow=hidden;rotatable=0;points=[[0,0.5],[1,0.5]];portConstraint=eastwest;fontColor=#1A1A1A;" parent="15" vertex="1">
                    <mxGeometry y="158" width="180" height="42" as="geometry"/>
                </mxCell>
                <mxCell id="22" value="WebMapPlugin" style="swimlane;fontStyle=1;align=center;verticalAlign=top;childLayout=stackLayout;horizontal=1;startSize=26;horizontalStack=0;resizeParent=1;resizeParentMax=0;resizeLast=0;collapsible=1;marginBottom=0;fillColor=#F5AB50;strokeColor=#909090;fontColor=#1A1A1A;" parent="1" vertex="1">
                    <mxGeometry x="20" y="640" width="210" height="120" as="geometry"/>
                </mxCell>
                <mxCell id="23" value="- viewer_: IViewer&#10;- _pluginName: string" style="text;strokeColor=none;fillColor=none;align=left;verticalAlign=top;spacingLeft=4;spacingRight=4;overflow=hidden;rotatable=0;points=[[0,0.5],[1,0.5]];portConstraint=eastwest;fontColor=#1A1A1A;" parent="22" vertex="1">
                    <mxGeometry y="26" width="210" height="54" as="geometry"/>
                </mxCell>
                <mxCell id="24" value="" style="line;strokeWidth=1;fillColor=none;align=left;verticalAlign=middle;spacingTop=-1;spacingLeft=3;spacingRight=3;rotatable=0;labelPosition=right;points=[];portConstraint=eastwest;labelBackgroundColor=#EEEEEE;strokeColor=#909090;fontColor=#1A1A1A;" parent="22" vertex="1">
                    <mxGeometry y="80" width="210" height="8" as="geometry"/>
                </mxCell>
                <mxCell id="25" value="+ installPlugin (webMap: WebMap)" style="text;strokeColor=none;fillColor=none;align=left;verticalAlign=top;spacingLeft=4;spacingRight=4;overflow=hidden;rotatable=0;points=[[0,0.5],[1,0.5]];portConstraint=eastwest;fontColor=#1A1A1A;" parent="22" vertex="1">
                    <mxGeometry y="88" width="210" height="32" as="geometry"/>
                </mxCell>
                <mxCell id="30" value="&lt;p style=&quot;margin: 0px ; margin-top: 4px ; text-align: center&quot;&gt;&lt;i&gt;&amp;lt;&amp;lt;Interface&amp;gt;&amp;gt;&lt;/i&gt;&lt;br&gt;&lt;b&gt;IWebMapOptions&lt;/b&gt;&lt;/p&gt;&lt;hr size=&quot;1&quot;&gt;&lt;p style=&quot;margin: 0px ; margin-left: 4px&quot;&gt;+ baseUrl: string&lt;/p&gt;&lt;p style=&quot;margin: 0px ; margin-left: 4px&quot;&gt;&lt;br&gt;&lt;/p&gt;" style="verticalAlign=top;align=left;overflow=fill;fontSize=12;fontFamily=Helvetica;html=1;fillColor=#F5AB50;strokeColor=#909090;fontColor=#1A1A1A;" parent="1" vertex="1">
                    <mxGeometry x="300" y="180" width="252" height="70" as="geometry"/>
                </mxCell>
                <mxCell id="31" value="" style="endArrow=diamondThin;endFill=1;endSize=24;html=1;labelBackgroundColor=#EEEEEE;strokeColor=#182E3E;fontColor=#1A1A1A;" parent="1" source="22" target="15" edge="1">
                    <mxGeometry width="160" relative="1" as="geometry">
                        <mxPoint x="290" y="490" as="sourcePoint"/>
                        <mxPoint x="450" y="490" as="targetPoint"/>
                        <Array as="points">
                            <mxPoint x="230" y="540"/>
                        </Array>
                    </mxGeometry>
                </mxCell>
                <mxCell id="32" value="@xizher/observer" style="html=1;fillColor=#F5AB50;strokeColor=#909090;fontColor=#1A1A1A;" parent="1" vertex="1">
                    <mxGeometry x="20" y="530" width="130" height="40" as="geometry"/>
                </mxCell>
                <mxCell id="34" value="" style="endArrow=block;endSize=16;endFill=0;html=1;labelBackgroundColor=#EEEEEE;strokeColor=#182E3E;fontColor=#1A1A1A;" parent="1" source="22" target="32" edge="1">
                    <mxGeometry x="-0.1998" y="-8" width="160" relative="1" as="geometry">
                        <mxPoint x="400" y="740" as="sourcePoint"/>
                        <mxPoint x="560" y="740" as="targetPoint"/>
                        <mxPoint as="offset"/>
                    </mxGeometry>
                </mxCell>
                <mxCell id="35" value="" style="endArrow=block;endSize=16;endFill=0;html=1;labelBackgroundColor=#EEEEEE;strokeColor=#182E3E;fontColor=#1A1A1A;" parent="1" source="15" target="32" edge="1">
                    <mxGeometry x="-0.1998" y="-8" width="160" relative="1" as="geometry">
                        <mxPoint x="119" y="650" as="sourcePoint"/>
                        <mxPoint x="100.33333333333337" y="580" as="targetPoint"/>
                        <mxPoint as="offset"/>
                    </mxGeometry>
                </mxCell>
                <mxCell id="36" value="Basemap" style="swimlane;fontStyle=1;align=center;verticalAlign=top;childLayout=stackLayout;horizontal=1;startSize=26;horizontalStack=0;resizeParent=1;resizeParentMax=0;resizeLast=0;collapsible=1;marginBottom=0;fillColor=#F5AB50;strokeColor=#909090;fontColor=#1A1A1A;" parent="1" vertex="1">
                    <mxGeometry x="270" y="270" width="380" height="400" as="geometry">
                        <mxRectangle x="290" y="290" width="90" height="26" as="alternateBounds"/>
                    </mxGeometry>
                </mxCell>
                <mxCell id="37" value="- _TianDiTuUrls: string[]&#10;- _GeoQDiTuUrls: string[]&#10;- _NoKeyOfBasemapItemException: string" style="text;strokeColor=none;fillColor=none;align=left;verticalAlign=top;spacingLeft=4;spacingRight=4;overflow=hidden;rotatable=0;points=[[0,0.5],[1,0.5]];portConstraint=eastwest;fontStyle=2;fontColor=#1A1A1A;" parent="36" vertex="1">
                    <mxGeometry y="26" width="380" height="54" as="geometry"/>
                </mxCell>
                <mxCell id="38" value="" style="line;strokeWidth=1;fillColor=none;align=left;verticalAlign=middle;spacingTop=-1;spacingLeft=3;spacingRight=3;rotatable=0;labelPosition=right;points=[];portConstraint=eastwest;labelBackgroundColor=#EEEEEE;strokeColor=#909090;fontColor=#1A1A1A;" parent="36" vertex="1">
                    <mxGeometry y="80" width="380" height="8" as="geometry"/>
                </mxCell>
                <mxCell id="43" value="- _options: IBasemapOptions&#10;- _basemapItemPool: Map&lt;string, cesium/ImageryLayer[]&gt;&#10;- _key: string&#10;- _layerGroup: cesium/ImageryLayer[]&#10;- _visible: boolean" style="text;strokeColor=none;fillColor=none;align=left;verticalAlign=top;spacingLeft=4;spacingRight=4;overflow=hidden;rotatable=0;points=[[0,0.5],[1,0.5]];portConstraint=eastwest;fontColor=#1A1A1A;" parent="36" vertex="1">
                    <mxGeometry y="88" width="380" height="82" as="geometry"/>
                </mxCell>
                <mxCell id="42" value="" style="line;strokeWidth=1;fillColor=none;align=left;verticalAlign=middle;spacingTop=-1;spacingLeft=3;spacingRight=3;rotatable=0;labelPosition=right;points=[];portConstraint=eastwest;labelBackgroundColor=#EEEEEE;strokeColor=#909090;fontColor=#1A1A1A;" parent="36" vertex="1">
                    <mxGeometry y="170" width="380" height="8" as="geometry"/>
                </mxCell>
                <mxCell id="39" value="+ get basemapItems () : string[]&#10;+ get key () : string&#10;+ get visible () : boolean" style="text;strokeColor=none;fillColor=none;align=left;verticalAlign=top;spacingLeft=4;spacingRight=4;overflow=hidden;rotatable=0;points=[[0,0.5],[1,0.5]];portConstraint=eastwest;fontColor=#1A1A1A;" parent="36" vertex="1">
                    <mxGeometry y="178" width="380" height="62" as="geometry"/>
                </mxCell>
                <mxCell id="44" value="" style="line;strokeWidth=1;fillColor=none;align=left;verticalAlign=middle;spacingTop=-1;spacingLeft=3;spacingRight=3;rotatable=0;labelPosition=right;points=[];portConstraint=eastwest;labelBackgroundColor=#EEEEEE;strokeColor=#909090;fontColor=#1A1A1A;" parent="36" vertex="1">
                    <mxGeometry y="240" width="380" height="8" as="geometry"/>
                </mxCell>
                <mxCell id="45" value="- _init () : this&#10;- _ createTianDiTu () : this&#10;- _createGeoQDiTu () : this&#10;+ setBasemap (key: string) : this&#10;+ setVisible (visible: boolean) : this&#10;+ createBasemapItem (key: string, layer: BaseLayer) : this&#10;+ createBasemapItem (key: string, layers: BaseLayer[]) : this&#10;+ createBasemapItemAndSet (key: string, layer: BaseLayer) : this&#10;+ createBasemapItemAndSet (key: string, layers: BaseLayer[]) : this" style="text;strokeColor=none;fillColor=none;align=left;verticalAlign=top;spacingLeft=4;spacingRight=4;overflow=hidden;rotatable=0;points=[[0,0.5],[1,0.5]];portConstraint=eastwest;fontColor=#1A1A1A;" parent="36" vertex="1">
                    <mxGeometry y="248" width="380" height="152" as="geometry"/>
                </mxCell>
                <mxCell id="41" value="" style="endArrow=block;endSize=16;endFill=0;html=1;labelBackgroundColor=#EEEEEE;strokeColor=#182E3E;fontColor=#1A1A1A;" parent="1" source="36" target="22" edge="1">
                    <mxGeometry width="160" relative="1" as="geometry">
                        <mxPoint x="320" y="660" as="sourcePoint"/>
                        <mxPoint x="480" y="660" as="targetPoint"/>
                    </mxGeometry>
                </mxCell>
                <mxCell id="46" value="MapCursor" style="swimlane;fontStyle=1;align=center;verticalAlign=top;childLayout=stackLayout;horizontal=1;startSize=26;horizontalStack=0;resizeParent=1;resizeParentMax=0;resizeLast=0;collapsible=1;marginBottom=0;fillColor=#F5AB50;strokeColor=#909090;fontColor=#1A1A1A;" parent="1" vertex="1">
                    <mxGeometry x="290" y="720" width="270" height="164" as="geometry"/>
                </mxCell>
                <mxCell id="51" value="- _MAP_CURSOR_TYPE: Object&lt;string, string&gt;" style="text;strokeColor=none;fillColor=none;align=left;verticalAlign=top;spacingLeft=4;spacingRight=4;overflow=hidden;rotatable=0;points=[[0,0.5],[1,0.5]];portConstraint=eastwest;fontColor=#1A1A1A;" parent="46" vertex="1">
                    <mxGeometry y="26" width="270" height="26" as="geometry"/>
                </mxCell>
                <mxCell id="50" value="" style="line;strokeWidth=1;fillColor=none;align=left;verticalAlign=middle;spacingTop=-1;spacingLeft=3;spacingRight=3;rotatable=0;labelPosition=right;points=[];portConstraint=eastwest;labelBackgroundColor=#EEEEEE;strokeColor=#909090;fontColor=#1A1A1A;" parent="46" vertex="1">
                    <mxGeometry y="52" width="270" height="8" as="geometry"/>
                </mxCell>
                <mxCell id="47" value="+ _cursorType: string" style="text;strokeColor=none;fillColor=none;align=left;verticalAlign=top;spacingLeft=4;spacingRight=4;overflow=hidden;rotatable=0;points=[[0,0.5],[1,0.5]];portConstraint=eastwest;fontColor=#1A1A1A;" parent="46" vertex="1">
                    <mxGeometry y="60" width="270" height="30" as="geometry"/>
                </mxCell>
                <mxCell id="53" value="" style="line;strokeWidth=1;fillColor=none;align=left;verticalAlign=middle;spacingTop=-1;spacingLeft=3;spacingRight=3;rotatable=0;labelPosition=right;points=[];portConstraint=eastwest;labelBackgroundColor=#EEEEEE;strokeColor=#909090;fontColor=#1A1A1A;" parent="46" vertex="1">
                    <mxGeometry y="90" width="270" height="8" as="geometry"/>
                </mxCell>
                <mxCell id="54" value="+ get cursorType () : string" style="text;strokeColor=none;fillColor=none;align=left;verticalAlign=top;spacingLeft=4;spacingRight=4;overflow=hidden;rotatable=0;points=[[0,0.5],[1,0.5]];portConstraint=eastwest;fontColor=#1A1A1A;" parent="46" vertex="1">
                    <mxGeometry y="98" width="270" height="26" as="geometry"/>
                </mxCell>
                <mxCell id="48" value="" style="line;strokeWidth=1;fillColor=none;align=left;verticalAlign=middle;spacingTop=-1;spacingLeft=3;spacingRight=3;rotatable=0;labelPosition=right;points=[];portConstraint=eastwest;labelBackgroundColor=#EEEEEE;strokeColor=#909090;fontColor=#1A1A1A;" parent="46" vertex="1">
                    <mxGeometry y="124" width="270" height="8" as="geometry"/>
                </mxCell>
                <mxCell id="49" value="+ setMapCursor (type: string) : this" style="text;strokeColor=none;fillColor=none;align=left;verticalAlign=top;spacingLeft=4;spacingRight=4;overflow=hidden;rotatable=0;points=[[0,0.5],[1,0.5]];portConstraint=eastwest;fontColor=#1A1A1A;" parent="46" vertex="1">
                    <mxGeometry y="132" width="270" height="32" as="geometry"/>
                </mxCell>
                <mxCell id="52" value="" style="endArrow=block;endSize=16;endFill=0;html=1;labelBackgroundColor=#EEEEEE;strokeColor=#182E3E;fontColor=#1A1A1A;" parent="1" source="46" target="22" edge="1">
                    <mxGeometry x="-0.125" width="160" relative="1" as="geometry">
                        <mxPoint x="90" y="840" as="sourcePoint"/>
                        <mxPoint x="250" y="840" as="targetPoint"/>
                        <mxPoint as="offset"/>
                    </mxGeometry>
                </mxCell>
                <mxCell id="55" value="extends cesium/Viewer.ConstructorOptions" style="shape=note;whiteSpace=wrap;html=1;size=14;verticalAlign=top;align=left;spacingTop=-6;fillColor=#F5AB50;strokeColor=#909090;fontColor=#1A1A1A;" vertex="1" parent="1">
                    <mxGeometry x="302" y="130" width="258" height="30" as="geometry"/>
                </mxCell>
                <mxCell id="56" value="" style="endArrow=none;html=1;edgeStyle=orthogonalEdgeStyle;entryX=0.5;entryY=1;entryDx=0;entryDy=0;entryPerimeter=0;labelBackgroundColor=#EEEEEE;strokeColor=#182E3E;fontColor=#1A1A1A;" edge="1" parent="1" target="55" source="30">
                    <mxGeometry relative="1" as="geometry">
                        <mxPoint x="425.74" y="175.91999999999996" as="sourcePoint"/>
                        <mxPoint x="480" y="274" as="targetPoint"/>
                    </mxGeometry>
                </mxCell>
                <mxCell id="57" value="" style="resizable=0;html=1;align=left;verticalAlign=bottom;fontSize=10;labelBackgroundColor=#EEEEEE;fillColor=#F5AB50;strokeColor=#909090;fontColor=#1A1A1A;" connectable="0" vertex="1" parent="56">
                    <mxGeometry x="-1" relative="1" as="geometry"/>
                </mxCell>
                <mxCell id="58" value="" style="resizable=0;html=1;align=right;verticalAlign=bottom;fontSize=10;labelBackgroundColor=#EEEEEE;fillColor=#F5AB50;strokeColor=#909090;fontColor=#1A1A1A;" connectable="0" vertex="1" parent="56">
                    <mxGeometry x="1" relative="1" as="geometry"/>
                </mxCell>
            </root>
        </mxGraphModel>
    </diagram>
</mxfile>